<svg width="23" height="23" viewBox="0 0 23 23" fill="none" xmlns="http://www.w3.org/2000/svg">
<g clip-path="url(#clip0_18_53)">
<path d="M5.66383 8.59625C5.54883 8.82625 5.60633 9.085 5.77883 9.2575C5.95133 9.43 6.21008 9.4875 6.44008 9.3725C6.67008 9.28625 6.81383 9.085 6.81383 8.82625C6.81383 8.59625 6.67008 8.36625 6.44008 8.28C6.29633 8.2225 6.12383 8.2225 5.98008 8.28C5.83633 8.3375 5.72133 8.4525 5.66383 8.59625Z" fill="black"/>
<path d="M9.48745 7.33126C9.37245 7.64751 9.5162 7.99251 9.8037 8.13626C10.12 8.25126 10.465 8.10751 10.6087 7.79126C10.7237 7.50376 10.58 7.15876 10.2637 7.04376C9.9762 6.90001 9.6312 7.04376 9.48745 7.33126Z" fill="black"/>
<path d="M8.27986 9.40125C8.19361 9.63125 8.25111 9.89 8.42361 10.0625C8.59611 10.235 8.85486 10.2925 9.08486 10.1775C9.28611 10.0912 9.42986 9.89 9.42986 9.63125C9.42986 9.40125 9.28611 9.17125 9.08486 9.085C8.94111 9.0275 8.76861 9.0275 8.62486 9.085C8.48111 9.1425 8.33736 9.2575 8.27986 9.40125Z" fill="black"/>
<path fill-rule="evenodd" clip-rule="evenodd" d="M22.2236 11.4425C22.5399 11.4425 22.7986 11.7013 22.7986 12.0463C22.7986 12.3625 22.5399 12.65 22.2236 12.65H21.4474V14.2313C21.4474 15.6113 21.0161 16.9625 20.2111 18.0838C19.4061 19.2338 18.2561 20.0675 16.9624 20.5275L17.9686 21.8213C18.1699 22.08 18.1124 22.4538 17.8536 22.655C17.7674 22.7413 17.6236 22.77 17.4799 22.77C17.3074 22.77 17.1349 22.6838 17.0199 22.54L15.6686 20.8438C15.3811 20.8821 15.0936 20.9013 14.8061 20.9013H8.19361C7.88695 20.9013 7.58986 20.8821 7.30236 20.8438L5.97986 22.5688C5.86486 22.7125 5.69236 22.7988 5.51986 22.7988C5.37611 22.7988 5.26111 22.7413 5.14611 22.655C4.88736 22.4538 4.82986 22.08 5.03111 21.8213L6.03736 20.5563C4.74361 20.0963 3.59361 19.2338 2.78861 18.1125C1.98361 16.9913 1.55236 15.64 1.55236 14.26V12.65H0.776113C0.431113 12.65 0.172363 12.3913 0.172363 12.0463C0.172363 11.73 0.431113 11.4425 0.776113 11.4425H1.49486V2.76C1.49486 1.495 2.38611 0.402503 3.65111 0.172503C4.88736 -0.0287473 6.12361 0.661253 6.55486 1.84L6.66986 2.1275C8.13611 1.955 9.54486 2.84625 10.0049 4.28375L10.1486 4.7725L10.3786 4.68625C10.6949 4.6 11.0399 4.7725 11.1261 5.08875C11.2411 5.405 11.0686 5.72125 10.7524 5.83625L9.94736 6.095L5.20361 7.59L4.39861 7.82C4.34111 7.83917 4.28361 7.84875 4.22611 7.84875C3.90986 7.84875 3.65111 7.6475 3.62236 7.36C3.56486 7.04375 3.73736 6.785 4.02486 6.69875L4.25486 6.6125L4.11111 6.12375C3.67986 4.74375 4.25486 3.24875 5.51986 2.53L5.43361 2.27125C5.20361 1.61 4.54236 1.23625 3.85236 1.38C3.19111 1.495 2.70236 2.07 2.70236 2.76V11.4425H11.9886C12.1611 10.5513 12.9374 9.91875 13.8286 9.91875H16.2724C17.1636 9.91875 17.9399 10.5513 18.0836 11.4425H22.2236ZM13.1674 15.3813H16.9336V11.7875C16.9336 11.5863 16.8761 11.4425 16.7611 11.2988C16.6174 11.1838 16.4736 11.0975 16.2724 11.0975H13.8286C13.6561 11.0975 13.4836 11.1838 13.3686 11.2988C13.2536 11.4425 13.1674 11.5863 13.1674 11.7875V15.3813Z" fill="black"/>
</g>
<defs>
<clipPath id="clip0_18_53">
<rect width="23" height="23" fill="white"/>
</clipPath>
</defs>
</svg>
