<svg width="19" height="11" viewBox="0 0 19 11" fill="none" xmlns="http://www.w3.org/2000/svg">
<g clip-path="url(#clip0_18_59)">
<path d="M1.29342 0.733334C1.29342 0.366667 1.01045 0.0814819 0.646615 0.0814819C0.302998 0.0814819 0.0200195 0.366667 0.0200195 0.733334V10.2667C0.0200195 10.6333 0.302998 10.9185 0.646615 10.9185H18.3328C18.6966 10.9185 18.9796 10.6333 18.9796 10.2667V6.45741C18.9796 6.11111 18.6966 5.82593 18.3328 5.82593H17.7062V5.17407C17.7062 3.42222 16.2913 1.9963 14.553 1.9963H6.97321C6.62959 1.9963 6.34662 2.28148 6.34662 2.62778V5.82593H1.29342V0.733334Z" fill="black"/>
<path d="M5.71992 3.58516C5.69971 2.5259 4.87099 1.67035 3.81992 1.67035C2.76886 1.67035 1.91992 2.5259 1.91992 3.58516C1.91992 4.64442 2.76886 5.49998 3.81992 5.49998C4.87099 5.49998 5.69971 4.64442 5.69971 3.58516H5.71992Z" fill="black"/>
</g>
<defs>
<clipPath id="clip0_18_59">
<rect width="19" height="11" fill="white"/>
</clipPath>
</defs>
</svg>
